<?xml version="1.0" encoding="UTF-8"?><svg id="_レイヤー_1" xmlns="http://www.w3.org/2000/svg" viewBox="0 0 256 256"><defs><style>.cls-1{fill:#f39800;}.cls-2{fill:#231815;}.cls-3{fill:none;stroke:#231815;stroke-linecap:square;stroke-miterlimit:10;stroke-width:18px;}</style></defs><path class="cls-2" d="M232.87,78.46l-13.67,13.67c4.39,11.11,6.8,23.22,6.8,35.87,0,54.04-43.96,98-98,98S30,182.04,30,128,73.96,30,128,30c28.15,0,53.56,11.93,71.44,31l12.73-12.73c-21.15-22.33-51.06-36.27-84.17-36.27-63.96,0-116,52.04-116,116s52.04,116,116,116,116-52.04,116-116c0-17.71-3.99-34.51-11.13-49.54Z"/><line class="cls-3" x1="118.04" y1="167.85" x2="64" y2="111.33"/><path class="cls-2" d="M145.6,153.02l-27.56,27.56-12.73-12.73,27.57-27.57-3.3,12.38c-.59,2.22,1.44,4.25,3.66,3.66l12.36-3.3Z"/><path class="cls-1" d="M250.25,54.57l-91.8,91.81-21.38,5.71c-1.98,.53-3.8-1.28-3.27-3.27l5.71-21.38L231.31,35.64c2.6-2.6,6.81-2.6,9.41,0l9.53,9.53c2.6,2.6,2.6,6.81,0,9.41Z"/></svg>