<?xml version="1.0" encoding="UTF-8"?><svg id="_レイヤー_1" xmlns="http://www.w3.org/2000/svg" viewBox="0 0 256 256"><defs><style>.cls-1{fill:#231815;}.cls-2{fill:none;stroke:#231815;stroke-linecap:square;stroke-miterlimit:10;stroke-width:16px;}</style></defs><path class="cls-1" d="M128,257.13c-41.66,0-75.56-33.9-75.56-75.56v-2h16v2c0,32.84,26.72,59.56,59.56,59.56s59.56-26.72,59.56-59.56-26.72-59.56-59.56-59.56c-17.04,0-30.9-13.86-30.9-30.9v-16.94H54.36L125.98-2.05l71.62,76.22h-38.7v24.84h-16V58.17h17.72L125.98,21.31l-34.64,36.86h21.76v32.94c0,8.22,6.68,14.9,14.9,14.9,41.66,0,75.56,33.9,75.56,75.56s-33.9,75.56-75.56,75.56Z"/><path class="cls-1" d="M201.56,181.57c0,40.56-33,73.56-73.56,73.56s-73.56-33-73.56-73.56h12c0,33.94,27.62,61.56,61.56,61.56s61.56-27.62,61.56-61.56-27.62-61.56-61.56-61.56c-15.94,0-28.9-12.96-28.9-28.9v-18.94H58.98L125.98,.87l67,71.3h-36.08v24.84h-12V60.17h20.34L125.98,18.39l-39.26,41.78h24.38v30.94c0,9.32,7.58,16.9,16.9,16.9,40.56,0,73.56,33,73.56,73.56Z"/><path class="cls-1" d="M53.24,170.42l.35-1.97c1.33-7.58,3.82-14.91,7.38-21.78,3.58-6.86,8.15-13.09,13.6-18.54l1.42-1.42,11.33,11.34-1.41,1.41c-8.72,8.72-14.45,19.7-16.56,31.75l-.35,1.97-15.75-2.77Z"/><path class="cls-1" d="M84.49,138.06c-8.75,8.75-14.89,20.12-17.12,32.82l-11.81-2.08c1.3-7.39,3.73-14.54,7.19-21.2,3.47-6.65,7.93-12.74,13.24-18.05l8.5,8.51Z"/><g><line class="cls-2" x1="87.55" y1="187.22" x2="117.23" y2="211.1"/><line class="cls-2" x1="164.69" y1="155.8" x2="117.23" y2="211.1"/></g></svg>