<?xml version="1.0" encoding="UTF-8"?><svg id="_レイヤー_1" xmlns="http://www.w3.org/2000/svg" viewBox="0 0 256 256"><defs><style>.cls-1{fill:#f39800;}.cls-2{fill:#231815;}.cls-3{fill:none;stroke:#231815;stroke-linecap:square;stroke-miterlimit:10;stroke-width:19.18px;}</style></defs><path class="cls-2" d="m235.4,75.2l-14.57,14.57c4.68,11.84,7.25,24.75,7.25,38.23,0,57.59-46.85,104.45-104.45,104.45S19.18,185.59,19.18,128,66.04,23.55,123.63,23.55c30,0,57.08,12.71,76.14,33.04l13.57-13.57C190.8,19.23,158.92,4.37,123.63,4.37,55.46,4.37,0,59.83,0,128s55.46,123.63,123.63,123.63,123.63-55.46,123.63-123.63c0-18.88-4.25-36.78-11.86-52.8Z"/><line class="cls-3" x1="113.01" y1="170.47" x2="55.42" y2="110.23"/><path class="cls-2" d="m142.39,154.67l-29.37,29.37-13.57-13.57,29.38-29.38-3.52,13.19c-.63,2.37,1.53,4.53,3.9,3.9l13.17-3.52Z"/><path class="cls-1" d="m253.92,49.74l-97.84,97.85-22.79,6.08c-2.11.56-4.05-1.37-3.48-3.48l6.08-22.79L233.74,29.56c2.77-2.77,7.26-2.77,10.02,0l10.16,10.16c2.77,2.77,2.77,7.26,0,10.03Z"/></svg>